PathFileType	3	(X/Y/Z)	D:\minhoCalibration\240510\subject2_KPNP\preferred\preferred19.trc
DataRate	CameraRate	NumFrames	NumMarkers	Units	OrigDataRate	OrigDataStartFrame	OrigNumFrames
200.0	200.0	30	10	mm	200.0	385	191	
Frame#	Time	Left_Ankle_Outer1			Left_Ankle_Inner1			Left_Knee_Outer1			Left_Knee_Inner1			Left_Wrist1			Right_Wrist1			Right_Knee_Inner1			Right_Knee_Outer1			Right_Ankle_Inner1			Right_Ankle_Outer1			
		X1	Y1	Z1	X2	Y2	Z2	X3	Y3	Z3	X4	Y4	Z4	X5	Y5	Z5	X6	Y6	Z6	X7	Y7	Z7	X8	Y8	Z8	X9	Y9	Z9	X10	Y10	Z10	
385	1.915	-731.01434	76.684387	-601.91418	-738.76807	82.933006	-546.89917	-596.24835	503.73013	-627.23572	-650.47461	493.68668	-550.03699	-563.80389	977.59619	-693.87689	-858.3808	1033.2938	-524.99731	-809.69446	541.73914	-343.19751	-891.78235	585.29309	-333.88657	-938.547	199.23056	-542.7063	-1041.0881	225.63766	-532.84351
386	1.92	-731.03021	76.514908	-602.08008	-739.25446	83.645844	-544.89966	-596.71173	503.94434	-627.86707	-651.83179	493.74036	-550.32916	-564.4707	977.97253	-692.94733	-860.74573	1032.2087	-527.12067	-816.6308	538.15405	-351.35654	-899.65479	582.53857	-339.0827	-939.13165	197.78621	-559.07782	-1042.674	223.59669	-550.12701
387	1.925	-731.0802	76.396103	-602.1546	-739.31537	83.711746	-544.96893	-598.11414	503.91858	-627.40851	-653.18408	493.81982	-550.52094	-564.75732	978.49579	-691.41583	-863.19897	1031.0732	-529.36841	-823.26917	534.80261	-360.20236	-907.31702	576.93951	-354.41678	-941.00745	196.70724	-573.71307	-1044.2856	222.53377	-567.79169
388	1.93	-731.09991	76.310783	-602.2724	-739.61609	83.658417	-544.99286	-599.12018	503.91382	-627.28143	-654.73444	493.88614	-550.73914	-564.9046	979.12158	-689.91907	-865.74524	1029.9833	-531.72522	-828.93579	531.30542	-368.56784	-914.31921	575.24323	-357.17322	-945.7605	193.43948	-587.73212	-1045.2516	221.11288	-584.99359
389	1.935	-731.1875	76.650528	-602.96295	-739.2691	83.753738	-545.6203	-600.11688	503.90942	-627.11914	-656.32007	493.97852	-550.94739	-565.08032	979.76733	-688.33594	-868.35107	1028.8605	-534.19934	-836.06299	528.16608	-376.81863	-920.33307	572.12561	-369.82962	-945.52441	192.57845	-602.93506	-1045.9767	219.74841	-601.638
390	1.94	-731.22998	76.585419	-603.06415	-739.55737	83.254944	-546.25	-601.12848	503.92682	-626.9621	-657.93524	493.96426	-551.29596	-565.0545	980.55042	-686.79468	-871.00549	1027.6643	-536.71411	-842.55481	525.18579	-385.46222	-926.84125	566.99152	-385.14105	-945.61072	191.60881	-617.04456	-1046.5708	219.33859	-617.47449
391	1.945	-731.24237	76.589294	-603.16327	-739.29688	83.164253	-547.52802	-602.14105	503.91351	-626.70404	-659.61072	493.89633	-551.51477	-565.93958	981.00946	-684.95013	-873.67889	1026.4037	-539.3623	-848.77686	522.30896	-394.06915	-933.66364	565.87299	-388.45273	-947.6803	189.49518	-629.53314	-1046.9309	217.46777	-633.96527
392	1.95	-731.31604	76.456947	-603.21771	-740.23383	82.003799	-549.172	-603.07623	503.93497	-626.38556	-661.37469	493.87033	-551.76373	-565.82629	981.81152	-683.4812	-876.43298	1025.1278	-542.12231	-854.95642	519.54907	-402.88574	-938.83923	563.05249	-402.28738	-947.97028	188.36031	-642.5918	-1047.4023	216.65724	-649.43304
393	1.955	-731.38635	76.475319	-603.38171	-739.87964	83.320061	-546.41125	-603.83044	503.93546	-626.09912	-663.05206	493.8389	-551.98242	-566.4303	982.42285	-681.74176	-879.24158	1023.7731	-544.94635	-860.38257	516.91791	-411.59332	-945.36383	560.45831	-411.01224	-948.13538	186.86877	-655.22314	-1047.3342	215.56439	-664.75031
394	1.96	-731.43433	76.43895	-603.48871	-739.9278	83.244743	-546.67267	-604.8316	503.98492	-625.63403	-664.7373	493.80914	-552.20355	-567.74512	983.01318	-679.46277	-882.21448	1022.5741	-547.86597	-866.30408	514.02734	-420.15247	-952.16925	555.87549	-427.11716	-948.71423	185.34149	-667.20929	-1047.1051	214.50606	-679.65277
395	1.965	-731.46075	76.393188	-603.49463	-739.56671	83.142014	-547.37128	-605.68103	503.99368	-625.28748	-666.51672	493.81503	-552.49139	-567.79651	983.57202	-678.3772	-885.02704	1021.2146	-550.76727	-872.79468	512.27972	-429.10159	-956.52234	555.43768	-432.17462	-948.7406	183.82726	-678.9043	-1046.8073	213.45882	-694.16583
396	1.97	-731.43817	75.97319	-603.04877	-740.10858	83.570312	-545.91907	-606.55255	503.98053	-624.92908	-668.20923	493.81131	-552.76593	-568.47412	984.21191	-676.85748	-887.86603	1019.7648	-553.81451	-877.29999	509.06848	-436.90567	-961.20654	553.4491	-443.07565	-948.71851	182.88383	-690.09576	-1046.2698	212.31538	-708.17249
397	1.975	-731.48737	76.272827	-603.61383	-740.50739	82.022888	-549.16919	-607.4657	503.92477	-624.49298	-669.92456	493.86105	-553.03351	-569.39996	984.70703	-675.28125	-890.65155	1018.3103	-556.90637	-882.53485	506.68967	-445.90527	-966.43243	550.85883	-453.92923	-948.99921	181.12378	-700.99414	-1045.7483	211.8243	-722.27173
398	1.98	-731.46979	76.174263	-603.66199	-740.30212	83.230476	-546.53064	-608.1073	503.99567	-624.20612	-671.55933	493.85898	-553.30908	-571.5708	985.02844	-672.91296	-893.45349	1016.7829	-560.06757	-887.51575	504.54517	-453.22171	-970.75653	548.7923	-464.67795	-948.29987	179.04195	-712.30621	-1044.7812	210.31973	-734.90063
399	1.985	-731.38812	76.162277	-603.72394	-740.3244	83.082138	-546.7583	-608.79626	504.11038	-623.83112	-673.08405	493.86407	-553.65179	-572.75928	985.52051	-671.39673	-896.21625	1015.2913	-563.29633	-892.85803	502.69992	-463.98273	-974.9751	544.51373	-481.9747	-948.64313	177.23314	-722.31873	-1043.8987	208.97577	-747.40302
400	1.99	-731.35681	76.13974	-603.82251	-740.37134	82.75901	-547.76324	-609.60132	504.13693	-623.48108	-674.52252	493.85135	-554.06989	-574.66742	985.66498	-669.6745	-899.065	1013.7435	-566.61877	-896.66693	500.47696	-471.9631	-978.72791	544.85834	-485.95117	-948.47131	175.62592	-732.54242	-1042.7267	207.32867	-759.37018
401	1.995	-731.27496	76.13073	-603.95581	-740.88983	82.367638	-547.94403	-610.328	504.25018	-623.22174	-675.91559	493.91315	-554.49109	-575.77832	986.14893	-668.30316	-901.98682	1012.2388	-569.99921	-900.88354	498.71939	-480.84439	-982.22345	542.90405	-496.73337	-949.41919	173.29707	-741.58429	-1041.7223	205.86728	-771.02118
402	2	-731.21619	76.119347	-604.05725	-740.50928	83.072029	-546.74774	-610.83307	504.44275	-623.08044	-677.07104	493.85394	-554.99933	-577.20544	986.56683	-666.97821	-904.82001	1010.7369	-573.45813	-904.79822	497.14725	-489.69836	-986.04114	541.18811	-505.5979	-948.57147	171.49913	-751.20465	-1040.8594	204.5549	-782.53662
403	2.005	-731.18335	76.059044	-604.14807	-740.65338	83.58831	-546.08868	-611.78424	504.36102	-622.85052	-678.41034	493.97083	-555.38727	-578.15375	987.03162	-665.91571	-907.74384	1009.2211	-576.92279	-908.07697	495.34915	-499.17105	-988.8219	539.87469	-516.58203	-949.09967	169.46599	-759.91229	-1039.6118	202.78889	-793.21564
404	2.01	-731.12292	75.995926	-604.20428	-740.76257	83.362267	-546.46515	-612.48419	504.48544	-622.68298	-679.83093	493.98782	-555.72009	-579.69043	987.31964	-664.80554	-910.46472	1007.7642	-580.42639	-912.33478	493.5155	-509.99521	-991.68903	537.85687	-527.85364	-948.68854	167.21658	-768.52173	-1038.6478	201.00972	-803.62469
405	2.015	-731.09686	75.896492	-604.24176	-740.85785	83.501656	-546.28687	-612.8125	504.68634	-622.69781	-681.04395	493.91364	-556.18518	-581.5719	987.59143	-663.77472	-912.91199	1006.231	-583.91223	-915.4328	492.33325	-517.68225	-994.58734	536.53424	-536.50751	-948.20984	165.67648	-776.59137	-1037.7212	198.94858	-813.21997
406	2.02	-731.05414	75.817268	-604.3598	-740.78894	82.695091	-548.37274	-613.44818	504.63397	-622.56049	-682.26624	493.87051	-556.55841	-583.70117	987.77045	-662.76074	-915.8653	1004.8946	-587.60303	-918.94177	491.57574	-526.97412	-999.35406	532.93225	-552.88251	-948.32336	162.79138	-784.29932	-1036.7896	196.68471	-822.57355
407	2.025	-730.97681	75.736839	-604.47003	-740.96448	83.299095	-546.91003	-614.02094	504.67175	-622.3548	-683.40405	493.72946	-557.01984	-585.8313	987.98993	-661.94928	-918.82727	1003.6078	-591.27045	-920.84375	489.94672	-535.90723	-999.76044	533.72162	-556.73138	-948.15338	160.11485	-791.48553	-1035.9077	194.15979	-831.37317
408	2.03	-730.92206	75.66861	-604.56305	-741.2677	83.361412	-546.15411	-614.53809	504.65698	-622.17273	-684.51379	493.63812	-557.36749	-587.92419	988.18665	-661.29987	-921.82178	1002.3197	-595.03656	-923.94714	489.39822	-545.26135	-1001.8411	530.55188	-571.62891	-948.66919	157.7124	-797.73969	-1035.001	191.52606	-839.66962
409	2.035	-730.8006	75.036385	-603.96228	-741.18268	82.264481	-549.15277	-615.0166	504.68625	-622.02173	-685.59485	493.53021	-557.64264	-590.10901	988.38727	-660.78369	-924.78564	1001.0444	-598.82782	-926.03223	487.3201	-553.42395	-1003.5877	530.24817	-578.80176	-947.37891	155.21524	-804.55511	-1034.0532	188.65906	-847.54089
410	2.04	-730.66711	74.97921	-604.0567	-740.91058	82.789139	-548.14392	-615.18213	504.75919	-621.81885	-686.61664	493.32462	-557.88385	-592.36884	988.53381	-660.46747	-927.72546	999.73541	-602.57837	-928.24408	486.41525	-562.1405	-1005.2742	529.83936	-587.1004	-947.92706	152.11052	-810.3017	-1033.1786	185.6546	-855.05176
411	2.045	-730.60931	74.94648	-604.13062	-741.0423	83.264961	-547.1087	-615.43915	504.74142	-621.53973	-687.52673	493.08942	-558.16132	-594.7403	988.68774	-660.34619	-930.67352	998.39789	-606.33472	-930.11041	485.26648	-570.72003	-1005.8002	525.93494	-601.44269	-947.40808	149.58237	-815.84326	-1032.1124	182.61662	-862.27777
412	2.05	-730.56964	74.837074	-604.15753	-741.39764	83.358292	-546.13617	-615.651	504.7139	-621.33624	-688.34729	492.85501	-558.30853	-597.16168	988.77673	-660.37402	-933.79285	997.23627	-610.18036	-932.01489	484.09055	-579.47571	-1008.7585	525.80939	-607.74414	-945.8407	146.91571	-821.75629	-1031.2881	179.07158	-868.98431
413	2.055	-730.45544	74.893341	-604.18005	-741.02618	83.107849	-547.18481	-615.70129	504.70532	-621.0451	-688.99042	492.64972	-558.4361	-599.70483	988.81757	-660.58136	-936.55908	995.68488	-613.87976	-934.09601	483.69644	-588.01538	-1009.6024	525.71594	-615.71326	-946.43665	144.72508	-826.33447	-1030.571	175.49788	-874.99451
414	2.06	-730.39148	74.898605	-604.211	-741.07684	83.304428	-546.90308	-615.76996	504.67725	-620.66382	-689.52283	492.55252	-558.4256	-602.31763	988.84253	-661.10706	-939.78351	994.35956	-617.7384	-935.07397	482.84973	-596.51587	-1011.3439	523.60449	-625.61719	-945.52179	141.56174	-831.33478	-1030.241	171.85641	-880.1192
